<svg xmlns="http://www.w3.org/2000/svg" version="1.1" xmlns:xlink="http://www.w3.org/1999/xlink" xmlns:svgjs="http://svgjs.dev/svgjs" width="1000" height="999" viewBox="0 0 1000 999"><g transform="matrix(1,0,0,1,-0.215743440233382,-0.21552769679306039)"><svg viewBox="0 0 343 343" data-background-color="#ffffff" preserveAspectRatio="xMidYMid meet" height="999" width="1000" xmlns="http://www.w3.org/2000/svg" xmlns:xlink="http://www.w3.org/1999/xlink"><g id="tight-bounds" transform="matrix(1,0,0,1,0.0740000000000407,0.07400000000001228)"><svg viewBox="0 0 342.85155851775386 342.85155851775386" height="342.85155851775386" width="342.85155851775386"><g><svg></svg></g><g><svg viewBox="0 0 342.85155851775386 342.85155851775386" height="342.85155851775386" width="342.85155851775386"><g><path d="M0 171.426c0-94.676 76.75-171.426 171.426-171.426 94.676 0 171.426 76.75 171.426 171.426 0 94.676-76.75 171.426-171.426 171.426-94.676 0-171.426-76.75-171.426-171.426zM171.426 337.75c91.858 0 166.324-74.466 166.324-166.324 0-91.858-74.466-166.324-166.324-166.324-91.858 0-166.324 74.466-166.324 166.324 0 91.858 74.466 166.324 166.324 166.324z" data-fill-palette-color="tertiary" fill="#010c80" stroke="transparent"></path><ellipse rx="164.56874808852186" ry="164.56874808852186" cx="171.42577925887693" cy="171.42577925887693" fill="#010c80" stroke="transparent" stroke-width="0" fill-opacity="1" data-fill-palette-color="tertiary"></ellipse></g><g transform="matrix(1,0,0,1,64.84655864529837,116.70314231466996)"><svg viewBox="0 0 213.1584412271571 109.44527388841394" height="109.44527388841394" width="213.1584412271571"><g><svg viewBox="0 0 213.1584412271571 109.44527388841394" height="109.44527388841394" width="213.1584412271571"><g><svg viewBox="0 0 213.1584412271571 109.44527388841394" height="109.44527388841394" width="213.1584412271571"><g transform="matrix(1,0,0,1,0,52.87456231008137)"><svg viewBox="0 0 213.1584412271571 56.57071157833256" height="56.57071157833256" width="213.1584412271571"><g id="textblocktransform"><svg viewBox="0 0 213.1584412271571 56.57071157833256" height="56.57071157833256" width="213.1584412271571" id="textblock"><g><svg viewBox="0 0 213.1584412271571 56.57071157833256" height="56.57071157833256" width="213.1584412271571"><g transform="matrix(1,0,0,1,0,0)"><svg width="213.1584412271571" viewBox="0.05000000447034836 -37.5 188.37998962402344 50" height="56.57071157833256" data-palette-color="#ffffff"><path d="M17.3-37.5L19.35-37.5 19.35-2Q19.35 0.85 18.85 3.13 18.35 5.4 17.15 7.03 15.95 8.65 13.98 9.5 12 10.35 9.05 10.35L9.05 10.35Q6.65 10.35 4.93 9.78 3.2 9.2 2.13 8.2 1.05 7.2 0.55 5.8 0.05 4.4 0.05 2.8L0.05 2.8Q0.05 1.75 0.33 0.65 0.6-0.45 1.28-1.35 1.95-2.25 3.05-2.83 4.15-3.4 5.85-3.4L5.85-3.4Q7.9-3.4 9-2.48 10.1-1.55 10.1 0.7L10.1 0.7Q10.1 0.85 10.08 1.03 10.05 1.2 10.05 1.4L10.05 1.4Q9.35 0.75 8.6 0.45 7.85 0.15 7.15 0.15L7.15 0.15Q5.85 0.15 4.88 1.13 3.9 2.1 3.9 3.95L3.9 3.95Q3.9 5 4.33 5.8 4.75 6.6 5.45 7.15 6.15 7.7 7 8 7.85 8.3 8.75 8.3L8.75 8.3Q9.7 8.3 10.6 7.93 11.5 7.55 12.2 6.75 12.9 5.95 13.33 4.7 13.75 3.45 13.75 1.7L13.75 1.7 13.75-34.6Q10.3-33.75 8.43-31.35 6.55-28.95 6.55-25.35L6.55-25.35Q6.55-24.05 6.78-23.08 7-22.1 7.35-21.43 7.7-20.75 8.1-20.33 8.5-19.9 8.85-19.65L8.85-19.65Q5.85-19.65 4.1-21.05 2.35-22.45 2.35-25.45L2.35-25.45Q2.35-28 3.6-30.2 4.85-32.4 6.95-34.02 9.05-35.65 11.75-36.58 14.45-37.5 17.3-37.5L17.3-37.5ZM40.85-8.95L42.95-8.95Q41.5-6.95 39.97-5.63 38.45-4.3 37-3.3L37-3.3Q36.45-2.3 35.6-1.63 34.75-0.95 33.77-0.53 32.8-0.1 31.82 0.1 30.85 0.3 30.05 0.3L30.05 0.3Q27.85 0.3 26.42-0.4 25-1.1 24.15-2.18 23.3-3.25 22.95-4.58 22.6-5.9 22.6-7.1L22.6-7.1Q22.6-8.4 23.12-9.38 23.65-10.35 24.4-10.75L24.4-10.75Q25.7-14.5 26.95-18.18 28.2-21.85 28.6-25.55L28.6-25.55 33.65-26.55Q34.85-21.8 35.62-18.8 36.4-15.8 36.87-13.73 37.35-11.65 37.57-10.08 37.8-8.5 37.8-6.6L37.8-6.6Q38.65-7.15 39.4-7.78 40.15-8.4 40.85-8.95L40.85-8.95ZM32.5-6.95L32.5-6.95Q32.5-8.5 32.32-9.7 32.15-10.9 31.8-12.35 31.45-13.8 30.92-15.88 30.4-17.95 29.7-21.2L29.7-21.2Q29.4-18.4 28.47-15.85 27.55-13.3 26.8-10.6L26.8-10.6Q27.25-10.3 27.57-9.78 27.9-9.25 27.9-8.4L27.9-8.4Q27.9-7.45 27.4-6.95 26.9-6.45 26.3-6.45L26.3-6.45Q25.5-6.45 24.95-7.15L24.95-7.15Q25.35-5.4 26.35-4.42 27.35-3.45 29-3.45L29-3.45Q30.6-3.45 31.55-4.28 32.5-5.1 32.5-6.95ZM67.09-37.4L67.09 0 61.59 0 61.59-34.55Q58.24-33.6 56.29-31.3 54.34-29 54.34-25.55L54.34-25.55Q54.34-24.2 54.54-23.28 54.74-22.35 55.04-21.68 55.34-21 55.77-20.53 56.19-20.05 56.64-19.65L56.64-19.65Q53.64-19.65 51.89-21.03 50.14-22.4 50.14-25.7L50.14-25.7Q50.14-28.1 51.39-30.23 52.64-32.35 54.72-33.98 56.79-35.6 59.47-36.55 62.14-37.5 64.99-37.5L64.99-37.5Q65.54-37.5 66.07-37.48 66.59-37.45 67.09-37.4L67.09-37.4ZM71.69-25L76.69-25 76.69-21.2Q77.44-22.55 78.22-23.38 78.99-24.2 79.79-24.6 80.59-25 81.32-25.13 82.04-25.25 82.69-25.25L82.69-25.25Q84.94-25.25 86.32-24.4 87.69-23.55 88.39-22.23 89.09-20.9 89.32-19.33 89.54-17.75 89.54-16.3L89.54-16.3Q89.54-15.4 89.49-14.33 89.44-13.25 89.39-12.13 89.34-11 89.29-9.88 89.24-8.75 89.24-7.8L89.24-7.8Q89.24-7.4 89.29-6.68 89.34-5.95 89.54-5.25 89.74-4.55 90.19-4.03 90.64-3.5 91.49-3.5L91.49-3.5Q92.64-3.5 93.57-4.8 94.49-6.1 95.09-8.95L95.09-8.95 96.94-8.95Q96.39-5.8 95.54-3.98 94.69-2.15 93.74-1.2 92.79-0.25 91.84 0.03 90.89 0.3 90.09 0.3L90.09 0.3Q88.49 0.3 87.39-0.33 86.29-0.95 85.59-2 84.89-3.05 84.57-4.45 84.24-5.85 84.24-7.35L84.24-7.35Q84.24-7.8 84.27-9.03 84.29-10.25 84.32-11.65 84.34-13.05 84.37-14.3 84.39-15.55 84.39-16.05L84.39-16.05Q84.39-17.65 84.14-18.7 83.89-19.75 83.44-20.35 82.99-20.95 82.42-21.2 81.84-21.45 81.19-21.45L81.19-21.45Q79.64-21.45 78.52-20.2 77.39-18.95 76.69-16L76.69-16 76.69 0 71.69 0 71.69-25ZM100.04-27.4L100.04-25 104.09-25 104.09-23.25 100.04-23.25 100.04 4Q100.04 6.65 99.51 8.3 98.99 9.95 98.14 10.9 97.29 11.85 96.16 12.18 95.04 12.5 93.79 12.5L93.79 12.5Q91.09 12.5 89.81 11.25 88.54 10 88.54 7.65L88.54 7.65Q88.54 6.4 89.11 5.35 89.69 4.3 90.61 3.43 91.54 2.55 92.69 1.88 93.84 1.2 95.04 0.7L95.04 0.7 95.04-28.8Q95.04-33.15 97.09-35.33 99.14-37.5 102.34-37.5L102.34-37.5Q103.84-37.5 105.09-37.05 106.34-36.6 107.29-35.65 108.24-34.7 108.76-33.3 109.29-31.9 109.29-30L109.29-30 107.34-30Q107.04-32 106.26-33.15 105.49-34.3 103.69-34.3L103.69-34.3Q102.49-34.3 101.79-33.77 101.09-33.25 100.69-32.35 100.29-31.45 100.16-30.18 100.04-28.9 100.04-27.4L100.04-27.4ZM92.79 9.9L92.79 9.9Q94.24 9.9 94.64 8.35 95.04 6.8 95.04 4.1L95.04 4.1 95.04 2.55Q92.79 3.65 91.64 4.95 90.49 6.25 90.49 7.5L90.49 7.5Q90.49 8.5 91.14 9.2 91.79 9.9 92.79 9.9ZM107.04-25L112.04-25 112.04-8Q112.04-7.5 112.09-6.75 112.14-6 112.36-5.28 112.59-4.55 113.04-4.03 113.49-3.5 114.29-3.5L114.29-3.5Q116.74-3.5 117.89-8.95L117.89-8.95 119.74-8.95Q119.19-5.8 118.34-3.98 117.49-2.15 116.54-1.2 115.59-0.25 114.59 0.03 113.59 0.3 112.79 0.3L112.79 0.3Q111.04 0.3 109.94-0.38 108.84-1.05 108.19-2.1 107.54-3.15 107.29-4.45 107.04-5.75 107.04-6.95L107.04-6.95 107.04-25ZM106.14-32.2L106.14-32.2Q106.14-33.55 107.09-34.55 108.04-35.55 109.44-35.55L109.44-35.55Q110.79-35.55 111.79-34.55 112.79-33.55 112.79-32.2L112.79-32.2Q112.79-30.8 111.79-29.85 110.79-28.9 109.44-28.9L109.44-28.9Q108.04-28.9 107.09-29.85 106.14-30.8 106.14-32.2ZM117.83-25L122.83-25 122.83-21.2Q123.58-22.55 124.36-23.38 125.13-24.2 125.93-24.6 126.73-25 127.46-25.13 128.18-25.25 128.83-25.25L128.83-25.25Q131.08-25.25 132.46-24.4 133.83-23.55 134.53-22.23 135.23-20.9 135.46-19.33 135.68-17.75 135.68-16.3L135.68-16.3Q135.68-15.4 135.63-14.33 135.58-13.25 135.53-12.13 135.48-11 135.43-9.88 135.38-8.75 135.38-7.8L135.38-7.8Q135.38-7.4 135.43-6.68 135.48-5.95 135.68-5.25 135.88-4.55 136.33-4.03 136.78-3.5 137.63-3.5L137.63-3.5Q138.78-3.5 139.71-4.8 140.63-6.1 141.23-8.95L141.23-8.95 143.08-8.95Q142.53-5.8 141.68-3.98 140.83-2.15 139.88-1.2 138.93-0.25 137.98 0.03 137.03 0.3 136.23 0.3L136.23 0.3Q134.63 0.3 133.53-0.33 132.43-0.95 131.73-2 131.03-3.05 130.71-4.45 130.38-5.85 130.38-7.35L130.38-7.35Q130.38-7.8 130.41-9.03 130.43-10.25 130.46-11.65 130.48-13.05 130.51-14.3 130.53-15.55 130.53-16.05L130.53-16.05Q130.53-17.65 130.28-18.7 130.03-19.75 129.58-20.35 129.13-20.95 128.56-21.2 127.98-21.45 127.33-21.45L127.33-21.45Q125.78-21.45 124.66-20.2 123.53-18.95 122.83-16L122.83-16 122.83 0 117.83 0 117.83-25ZM141.23-25L146.23-25 146.23-8Q146.23-7.5 146.28-6.75 146.33-6 146.56-5.28 146.78-4.55 147.23-4.03 147.68-3.5 148.48-3.5L148.48-3.5Q150.93-3.5 152.08-8.95L152.08-8.95 153.93-8.95Q153.38-5.8 152.53-3.98 151.68-2.15 150.73-1.2 149.78-0.25 148.78 0.03 147.78 0.3 146.98 0.3L146.98 0.3Q145.23 0.3 144.13-0.38 143.03-1.05 142.38-2.1 141.73-3.15 141.48-4.45 141.23-5.75 141.23-6.95L141.23-6.95 141.23-25ZM140.33-32.2L140.33-32.2Q140.33-33.55 141.28-34.55 142.23-35.55 143.63-35.55L143.63-35.55Q144.98-35.55 145.98-34.55 146.98-33.55 146.98-32.2L146.98-32.2Q146.98-30.8 145.98-29.85 144.98-28.9 143.63-28.9L143.63-28.9Q142.23-28.9 141.28-29.85 140.33-30.8 140.33-32.2ZM152.08-31.9L157.08-32.6 157.08-25 160.93-25 160.93-23.25 157.08-23.25 157.08-8Q157.08-7.4 157.13-6.63 157.18-5.85 157.4-5.15 157.63-4.45 158.1-3.98 158.58-3.5 159.43-3.5L159.43-3.5Q160.78-3.5 162-4.85 163.23-6.2 163.93-8.95L163.93-8.95 165.78-8.95Q164.93-5.8 163.95-3.98 162.98-2.15 161.93-1.2 160.88-0.25 159.85 0.03 158.83 0.3 157.98 0.3L157.98 0.3Q156.18 0.3 155.03-0.38 153.88-1.05 153.23-2.1 152.58-3.15 152.33-4.42 152.08-5.7 152.08-6.95L152.08-6.95 152.08-23.25 150.38-23.25 150.38-25 152.08-25 152.08-31.9ZM175.73-25L180.73-25 180.73-1.05Q181.98-1.45 182.95-1.95 183.93-2.45 184.65-3.3 185.38-4.15 185.85-5.5 186.33-6.85 186.58-8.95L186.58-8.95 188.43-8.95Q188.03-6.3 187.4-4.63 186.78-2.95 185.85-1.93 184.93-0.9 183.65-0.33 182.38 0.25 180.73 0.75L180.73 0.75 180.73 3.95Q180.73 6.3 180.23 7.93 179.73 9.55 178.85 10.58 177.98 11.6 176.85 12.05 175.73 12.5 174.48 12.5L174.48 12.5Q171.98 12.5 170.58 11.08 169.18 9.65 169.18 7.6L169.18 7.6Q169.18 6.3 169.75 5.25 170.33 4.2 171.25 3.33 172.18 2.45 173.35 1.78 174.53 1.1 175.73 0.6L175.73 0.6 175.73-2.55Q174.73-1.1 173.45-0.4 172.18 0.3 170.88 0.3L170.88 0.3Q169.43 0.3 168.13-0.1 166.83-0.5 165.88-1.43 164.93-2.35 164.38-3.83 163.83-5.3 163.83-7.45L163.83-7.45 163.83-25 168.83-25 168.83-8Q168.83-5.55 169.68-4.53 170.53-3.5 171.83-3.5L171.83-3.5Q172.53-3.5 173.23-3.85 173.93-4.2 174.48-4.88 175.03-5.55 175.38-6.5 175.73-7.45 175.73-8.7L175.73-8.7 175.73-25ZM173.53 9.9L173.53 9.9Q174.88 9.9 175.3 8.88 175.73 7.85 175.73 6.1L175.73 6.1 175.73 2.6Q173.23 3.75 172.18 4.88 171.13 6 171.13 7.4L171.13 7.4Q171.13 8.55 171.75 9.22 172.38 9.9 173.53 9.9Z" opacity="1" transform="matrix(1,0,0,1,0,0)" fill="#ffffff" class="undefined-text-0" data-fill-palette-color="quaternary" id="text-0"></path></svg></g></svg></g></svg></g></svg></g><g transform="matrix(1,0,0,1,40.713262274387006,0)"><svg viewBox="0 0 131.7319166783831 39.51957500351493" height="39.51957500351493" width="131.7319166783831"><g><svg version="1.1" xmlns="http://www.w3.org/2000/svg" xmlns:xlink="http://www.w3.org/1999/xlink" x="0" y="0" viewBox="-0.0000019073486328125 0 100 30" enable-background="new 0 0 100 30" xml:space="preserve" width="131.7319166783831" height="39.51957500351493" class="icon-icon-0" data-fill-palette-color="quaternary" id="icon-0"><path d="M88 0C75.241 0 55.361 9.094 50 11.662 44.639 9.094 24.759 0 12 0 2.508 0 0 9.812 0 15s2.508 15 12 15c12.759 0 32.639-9.094 38-11.662C55.361 20.906 75.241 30 88 30c9.492 0 12-9.812 12-15S97.492 0 88 0zM6 15c0.003-0.422 0.145-9 6-9 9.094 0 23.065 5.55 30.872 9C35.065 18.45 21.094 24 12 24 6.145 24 6.003 15.422 6 15zM88 24c-9.094 0-23.065-5.55-30.872-9C64.935 11.55 78.906 6 88 6c5.855 0 5.997 8.578 6 9C93.997 15.422 93.855 24 88 24z" fill="#ffffff" data-fill-palette-color="quaternary"></path></svg></g></svg></g><g></g></svg></g></svg></g></svg></g></svg></g><defs></defs></svg><rect width="342.85155851775386" height="342.85155851775386" fill="none" stroke="none" visibility="hidden"></rect></g></svg></g></svg>